<?xml version="1.0" encoding="utf-8"?>
<!-- Generator: Adobe Illustrator 24.3.0, SVG Export Plug-In . SVG Version: 6.00 Build 0)  -->
<svg version="1.1" id="Layer_1" xmlns="http://www.w3.org/2000/svg" xmlns:xlink="http://www.w3.org/1999/xlink" x="0px" y="0px"
	 viewBox="0 0 573.4 93.7" style="enable-background:new 0 0 573.4 93.7;" xml:space="preserve">
<style type="text/css">
	.st0{fill:#ffffff;}
	.st1{fill:#07E1BE;}
</style>
<g>
	<g>
		<path class="st0" d="M89.1,4.4H45.7C23,4.4,4.5,22.9,4.5,45.6v2.5c0,22.7,18.5,41.2,41.2,41.2h43.4c22.7,0,41.2-18.5,41.2-41.2
			v-2.5C130.3,22.9,111.8,4.4,89.1,4.4z M15.5,48.1v-2.5c0-16.7,13.6-30.2,30.2-30.2H62v63H45.7C29.1,78.4,15.5,64.8,15.5,48.1z
			 M119.4,48.1c0,16.7-13.6,30.2-30.2,30.2H73v-63h16.2c16.7,0,30.2,13.6,30.2,30.2V48.1z"/>
		<path class="st0" d="M231.5,4.4h-62.3v11h62.3c9.2,0,16.6,7.5,16.6,16.6s-7.5,16.6-16.6,16.6h-51.4v0h-11v40.8h11V59.6h51.4
			c15.2,0,27.6-12.4,27.6-27.6C259.1,16.8,246.7,4.4,231.5,4.4z"/>
		<g>
			<polygon class="st0" points="541.9,4.4 513.1,48.4 484.2,4.4 457.4,4.4 457.4,15.4 478.3,15.4 507.3,59.6 518.8,59.6 547.8,15.4 
				557.7,15.4 557.7,89.4 568.7,89.4 568.7,4.4 			"/>
			<rect x="457.4" y="25.4" class="st0" width="11" height="64"/>
		</g>
		<g>
			<path class="st1" d="M377.9,64.3L377.9,64.3c-9.6,0-17.3-7.8-17.3-17.3v0c0-9.6,7.8-17.3,17.3-17.3h0c9.6,0,17.3,7.8,17.3,17.3v0
				C395.2,56.5,387.4,64.3,377.9,64.3z"/>
		</g>
		<g>
			<g>
				<path class="st0" d="M377.7,89.4h-41.4c-23.4,0-42.5-19.1-42.5-42.5c0-23.4,19.1-42.5,42.5-42.5h41.4
					c23.4,0,42.5,19.1,42.5,42.5C420.2,70.3,401.2,89.4,377.7,89.4z M336.4,15.4c-17.4,0-31.5,14.1-31.5,31.5s14.1,31.5,31.5,31.5
					h41.4c17.4,0,31.5-14.1,31.5-31.5s-14.1-31.5-31.5-31.5H336.4z"/>
			</g>
		</g>
	</g>
</g>
</svg>
